<?xml version="1.0" encoding="UTF-8" standalone="no"?>
<!-- Created with Inkscape (http://www.inkscape.org/) -->

<svg
   width="54.771339mm"
   height="18.291254mm"
   viewBox="0 0 54.771339 18.291254"
   version="1.1"
   id="svg1"
   xmlns:xlink="http://www.w3.org/1999/xlink"
   xmlns="http://www.w3.org/2000/svg"
   xmlns:svg="http://www.w3.org/2000/svg">
  <defs
     id="defs1">
    <linearGradient
       id="linearGradient1">
      <stop
         style="stop-color:#e191b8;stop-opacity:1;"
         offset="0.24765626"
         id="stop1" />
      <stop
         style="stop-color:#7a4c63;stop-opacity:1;"
         offset="0.74781495"
         id="stop6" />
    </linearGradient>
    <linearGradient
       xlink:href="#linearGradient1"
       id="linearGradient2"
       x1="23.081812"
       y1="3.4202511"
       x2="110.45477"
       y2="47.938999"
       gradientUnits="userSpaceOnUse"
       gradientTransform="matrix(1.1692895,0,0,1.1692895,-47.214846,-4.4560153)" />
  </defs>
  <g
     id="g1">
    <g
       id="g3"
       transform="translate(-47.360416,-1.6491241)">
      <path
         style="font-size:19.1212px;line-height:0;font-family:'Fjalla One';-inkscape-font-specification:'Fjalla One, Normal';text-align:end;word-spacing:0px;text-anchor:end;stroke-width:1.34454;paint-order:markers stroke fill"
         d="m 47.360415,16.411173 q 0,-0.504172 0.06535,-1.139056 0.06536,-0.634883 0.196067,-1.260431 h 1.932661 v 1.876642 q 0,1.232421 0.224076,1.699247 0.233413,0.45749 0.746922,0.45749 0.438817,0 0.681566,-0.382798 0.252087,-0.382797 0.252087,-1.465834 V 3.8442121 h 2.418159 V 15.925674 q 0,1.652565 -0.485499,2.520861 -0.476163,0.85896 -1.241758,1.176402 -0.765595,0.317442 -1.624555,0.317442 -1.204411,0 -1.895314,-0.476163 -0.690903,-0.485499 -0.980335,-1.28844 -0.289432,-0.802941 -0.289432,-1.764603 z m 8.048083,-3.015697 v -1.895314 h 6.95571 v 1.895314 z m 7.291825,3.165081 q 0,-0.513508 0.05602,-0.952325 0.06536,-0.438817 0.186731,-0.933652 h 1.876641 v 0.709575 q 0,1.288441 0.392134,1.979343 0.392134,0.681567 1.204412,0.681567 1.400478,0 1.400478,-1.372469 0,-0.532182 -0.233413,-1.120383 -0.224076,-0.588201 -0.88697,-1.437825 L 64.175494,10.949307 Q 63.512601,10.090347 63.13914,9.2313863 62.775015,8.3724261 62.775015,7.317399 q 0,-1.5872091 0.980335,-2.5955536 0.989672,-1.0176811 2.735602,-1.0176811 1.409815,0 2.212756,0.5135088 0.802941,0.5041723 1.129719,1.2791037 0.336115,0.7749315 0.336115,1.5872091 0,0.5135088 -0.08403,0.9523254 -0.07469,0.4294801 -0.177394,0.9523254 H 68.040815 V 8.2230418 q 0,-1.2604307 -0.401471,-1.941997 -0.40147,-0.6815662 -1.148392,-0.6815662 -0.681566,0 -1.036354,0.3827975 -0.345452,0.3734609 -0.345452,1.0083445 0,0.5415184 0.224077,0.9896715 0.224076,0.4388167 0.569528,0.9056428 l 2.810293,3.5665521 q 0.774932,0.999008 1.176402,1.904651 0.410807,0.896306 0.410807,1.998016 0,1.652565 -1.055027,2.623563 -1.055027,0.961662 -2.810293,0.961662 -1.437825,0 -2.259439,-0.485499 -0.812278,-0.494836 -1.148392,-1.269767 -0.326779,-0.774932 -0.326779,-1.624556 z m 13.164498,3.370485 q -0.578864,0 -1.269767,-0.168057 -0.681566,-0.168057 -1.297777,-0.700239 -0.61621,-0.532182 -1.008344,-1.596546 -0.392134,-1.0737 -0.392134,-2.866313 V 8.9512906 q 0,-1.4378246 0.261423,-2.3901501 0.270759,-0.9616619 0.700239,-1.5311898 0.438816,-0.5788645 0.961662,-0.8589602 0.532182,-0.2894323 1.064363,-0.373461 0.532182,-0.093365 0.980335,-0.093365 0.429481,0 0.952326,0.084029 0.532182,0.084029 1.055027,0.3641244 0.522845,0.2707592 0.952325,0.8402872 0.438817,0.5695279 0.70024,1.5311898 0.270759,0.961662 0.270759,2.4274962 v 5.6485969 q 0,1.773939 -0.410807,2.838304 -0.410807,1.064363 -1.036354,1.605882 -0.625547,0.532182 -1.297777,0.709576 -0.662893,0.177392 -1.185739,0.177392 z m 0,-1.895314 q 0.718913,0 1.064364,-0.541518 0.345452,-0.541519 0.345452,-2.026026 V 8.2790609 q 0,-1.5311899 -0.345452,-2.1007178 -0.345451,-0.5788645 -1.064364,-0.5788645 -0.737585,0 -1.092373,0.5788645 -0.345451,0.5695279 -0.345451,2.1007178 v 7.1891231 q 0,1.484507 0.345451,2.026026 0.354788,0.541518 1.092373,0.541518 z m 10.027426,1.895314 q -0.578864,0 -1.269767,-0.168057 -0.681566,-0.168057 -1.297777,-0.700239 -0.61621,-0.532182 -1.008344,-1.596546 -0.392134,-1.0737 -0.392134,-2.866313 V 8.9512906 q 0,-1.4378246 0.261422,-2.3901501 0.270759,-0.9616619 0.70024,-1.5311898 0.438816,-0.5788645 0.961662,-0.8589602 0.532181,-0.2894323 1.064363,-0.373461 0.532182,-0.093365 0.980335,-0.093365 0.42948,0 0.952326,0.084029 0.532181,0.084029 1.055027,0.3641244 0.522845,0.2707592 0.952325,0.8402872 0.438817,0.5695279 0.700239,1.5311898 0.27076,0.961662 0.27076,2.4274962 v 5.6485969 q 0,1.773939 -0.410807,2.838304 -0.410807,1.064363 -1.036354,1.605882 -0.625548,0.532182 -1.297777,0.709576 -0.662893,0.177392 -1.185739,0.177392 z m 0,-1.895314 q 0.718913,0 1.064364,-0.541518 0.345451,-0.541519 0.345451,-2.026026 V 8.2790609 q 0,-1.5311899 -0.345451,-2.1007178 -0.345451,-0.5788645 -1.064364,-0.5788645 -0.737585,0 -1.092373,0.5788645 -0.345451,0.5695279 -0.345451,2.1007178 v 7.1891231 q 0,1.484507 0.345451,2.026026 0.354788,0.541518 1.092373,0.541518 z M 92.203738,3.8442121 h 1.913988 l 3.89333,10.4849159 h 0.05602 q -0.03735,-0.494835 -0.102701,-1.10171 -0.05602,-0.61621 -0.102702,-1.47517 -0.04668,-0.85896 -0.04668,-2.0913816 V 3.8442121 H 99.96239 V 19.790995 H 98.029729 L 94.155072,9.5861742 h -0.07469 q 0.04668,0.5601918 0.102701,1.2230848 0.05602,0.662893 0.102702,1.671238 0.04668,1.008344 0.04668,2.623563 v 4.686935 h -2.128728 z"
         id="text1-2"
         aria-label="J-SOON" />
      <g
         id="layer1"
         transform="translate(14.056327,-15.952997)"
         style="stroke:#000000;stroke-opacity:1">
        <g
           id="g8"
           style="stroke:#000000;stroke-opacity:1">
          <g
             id="text1"
             style="opacity:1">
            <path
               style="font-size:19.1212px;line-height:0;font-family:'Fjalla One';-inkscape-font-specification:'Fjalla One, Normal';text-align:end;word-spacing:0px;baseline-shift:baseline;text-anchor:end;display:inline;overflow:visible;vector-effect:none;stroke:none;paint-order:markers stroke fill;enable-background:accumulate;stop-color:#000000;stop-opacity:1"
               d="m 53.931641,17.601562 c -1.294573,0 -2.419264,0.402552 -3.216797,1.222657 -0.77645,0.798634 -1.171875,1.865952 -1.171875,3.0625 0,0.780692 0.136617,1.514033 0.417968,2.177734 l 0.002,0.002 v 0.0039 c 0.274294,0.630878 0.650252,1.249271 1.121093,1.859375 l 0.0039,0.0039 2.523437,3.169922 c 0.414793,0.53263 0.676466,0.972498 0.785156,1.257812 l 0.002,0.0039 v 0.0059 c 0.129971,0.327525 0.187501,0.614591 0.1875,0.871093 0,0.343159 -0.07504,0.478852 -0.148437,0.550782 -0.0734,0.07193 -0.223056,0.15039 -0.580078,0.15039 -0.352642,0 -0.460379,-0.06695 -0.621094,-0.345703 C 53.064128,31.292705 52.93368,30.74409 52.93368,29.955146 V 28.572334 H 50.476648 V 25.398505 H 42.17782 v 3.240235 h 7.664063 l -0.111328,0.445312 c -0.08522,0.347428 -0.152137,0.679995 -0.199219,0.996094 v 0.0059 l -0.002,0.0078 c -0.04152,0.325219 -0.06055,0.670323 -0.06055,1.037109 0,0.652605 0.126875,1.287094 0.378906,1.884766 l 0.002,0.0039 0.002,0.0039 c 0.281958,0.65007 0.77457,1.186597 1.414063,1.576172 l 0.0039,0.002 0.0039,0.002 c 0.695613,0.411044 1.567346,0.580078 2.601563,0.580078 1.29295,0 2.423142,-0.372526 3.263672,-1.138672 h 0.002 v -0.002 c 0.843181,-0.776025 1.273437,-1.872415 1.273437,-3.117188 0,-0.81736 -0.155843,-1.58541 -0.472656,-2.277344 -0.295349,-0.664657 -0.714988,-1.339842 -1.255859,-2.037109 l -0.002,-0.002 -1.875,-2.378906 -0.923828,-1.173828 C 53.673628,22.77132 53.504521,22.499398 53.375,22.246094 c -3.64e-4,-7.13e-4 -0.0016,-0.0012 -0.002,-0.002 -0.09923,-0.200432 -0.150391,-0.417642 -0.150391,-0.683594 0,-0.301324 0.06466,-0.441212 0.166016,-0.550781 0.09063,-0.09779 0.21445,-0.167969 0.542969,-0.167969 0.293465,0 0.393246,0.05428 0.568359,0.351562 0.175668,0.298228 0.308594,0.8307 0.308594,1.59961 v 1.4375 h 3.09375 L 58.007812,23.6875 c 0.06854,-0.348905 0.129204,-0.665246 0.179688,-0.955078 0.06513,-0.34012 0.0957,-0.699117 0.0957,-1.078125 0,-0.632968 -0.135403,-1.257354 -0.392578,-1.851563 -0.274194,-0.647053 -0.757696,-1.186451 -1.386719,-1.582031 -0.685514,-0.437874 -1.551499,-0.61914 -2.572265,-0.619141 z m 9.373046,0 c -0.341731,0 -0.702187,0.03519 -1.083984,0.101563 -0.0014,2.21e-4 -0.0025,0.0017 -0.0039,0.002 -0.435287,0.06927 -0.862553,0.220407 -1.273438,0.443359 -4.17e-4,2.24e-4 -0.0015,-2.23e-4 -0.002,0 -7.58e-4,4.12e-4 -0.0012,0.0015 -0.002,0.002 -0.447971,0.240774 -0.838028,0.597421 -1.175781,1.042968 v 0.002 h -0.002 c -0.354949,0.470694 -0.614293,1.056867 -0.810547,1.753907 v 0.002 0.002 c -0.197145,0.71817 -0.285156,1.569066 -0.285156,2.568359 v 5.648438 c 0,1.244095 0.128859,2.268613 0.43164,3.097656 l 0.002,0.002 c 0.288348,0.782659 0.67401,1.419458 1.199219,1.873047 0.477107,0.412047 1.00737,0.703497 1.576172,0.84375 h 0.002 c 0.502498,0.122229 0.976767,0.1875 1.427734,0.1875 0.424587,0 0.876757,-0.0715 1.361329,-0.201172 0.557231,-0.147801 1.080295,-0.438792 1.558593,-0.845703 l 0.002,-0.002 0.002,-0.002 c 0.52676,-0.456001 0.923254,-1.092263 1.224609,-1.873047 0.319047,-0.826621 0.455078,-1.845557 0.455078,-3.080078 v -5.648438 c 0,-1.016356 -0.09122,-1.877639 -0.294922,-2.603515 -0.190274,-0.699935 -0.452122,-1.29042 -0.816406,-1.763672 -0.331394,-0.437991 -0.718842,-0.79001 -1.166016,-1.023438 -5.61e-4,-3.01e-4 -0.0014,3.01e-4 -0.002,0 -0.406512,-0.217555 -0.829947,-0.366839 -1.263672,-0.435547 h -0.002 c -0.376256,-0.06038 -0.729032,-0.09375 -1.058594,-0.09375 z m 10.029297,0 c -0.341738,0 -0.704133,0.03518 -1.085937,0.101563 -0.0014,2.21e-4 -0.0025,0.0017 -0.0039,0.002 -0.435288,0.06927 -0.862553,0.220406 -1.273438,0.443359 -4.17e-4,2.24e-4 -0.0015,-2.23e-4 -0.002,0 -7.58e-4,4.12e-4 -0.0012,0.0015 -0.002,0.002 -0.447971,0.240774 -0.838028,0.597421 -1.175781,1.042968 v 0.002 h -0.002 c -0.354949,0.470694 -0.614292,1.056866 -0.810546,1.753907 v 0.002 0.002 c -0.197144,0.71817 -0.285157,1.569066 -0.285157,2.568359 v 5.648438 c 0,1.244095 0.12886,2.268613 0.431641,3.097656 h 0.002 v 0.002 c 0.288348,0.782659 0.67401,1.419458 1.199219,1.873047 0.477107,0.412047 1.007369,0.703497 1.576172,0.84375 h 0.002 c 0.502498,0.122229 0.97872,0.1875 1.429687,0.1875 0.424587,0 0.874804,-0.0715 1.359375,-0.201172 0.557231,-0.147801 1.080295,-0.438792 1.558594,-0.845703 l 0.002,-0.002 0.002,-0.002 c 0.526761,-0.456001 0.923255,-1.092263 1.22461,-1.873047 0.319047,-0.826621 0.455078,-1.845557 0.455078,-3.080078 v -5.648438 c 0,-1.017862 -0.09059,-1.880875 -0.294922,-2.607422 -0.189655,-0.696006 -0.448602,-1.284309 -0.810547,-1.755859 l -0.002,-0.002 c -0.331984,-0.43966 -0.721531,-0.791327 -1.169922,-1.025391 -5.62e-4,-3.01e-4 -0.0014,3.01e-4 -0.002,0 -0.406512,-0.217555 -0.829948,-0.366839 -1.263672,-0.435547 h -0.002 c -0.376255,-0.06038 -0.727081,-0.09375 -1.056641,-0.09375 z m -35.105468,0.140625 v 13.025391 c 0,0.669865 -0.134691,1.083726 -0.142579,1.095703 l -0.002,0.0039 -0.0039,0.0059 c -0.06372,0.100477 -0.01622,0.07031 -0.113281,0.07031 -0.136942,0 -0.08941,0.02184 -0.142578,-0.08789 -0.05006,-0.109271 -0.15625,-0.622151 -0.15625,-1.396485 v -2.548828 h -3.152344 l -0.111328,0.535156 c -0.09186,0.439643 -0.161086,0.881832 -0.207031,1.328125 -0.04542,0.441286 -0.06836,0.84187 -0.06836,1.207032 0,0.708549 0.108088,1.378297 0.330078,1.99414 0.236165,0.655168 0.657495,1.210863 1.22461,1.609375 l 0.0039,0.002 0.002,0.002 c 0.610895,0.421022 1.385809,0.595703 2.277344,0.595703 0.655456,0 1.288292,-0.123442 1.880859,-0.369141 0.663021,-0.274911 1.197776,-0.797106 1.572266,-1.472656 0.411116,-0.737005 0.570312,-1.679698 0.570312,-2.845703 V 17.742187 Z m 40.74414,0 v 17.291016 h 3.472656 v -5.359375 c 0,-0.593853 -0.01592,-0.98072 -0.02539,-1.455078 l 2.585937,6.814453 h 3.070313 V 17.742187 h -3.492188 v 6.488282 c 0,0.166023 0.0085,0.26951 0.0098,0.425781 l -2.568359,-6.914063 z m -25.041015,1.205079 c 0.858254,0 1.46672,0.160129 1.851562,0.40625 l 0.002,0.002 0.002,0.002 c 0.438711,0.275469 0.705652,0.587631 0.867188,0.970703 l 0.002,0.0039 0.002,0.002 c 0.189956,0.437954 0.279297,0.871521 0.279297,1.320313 0,0.305669 -0.02536,0.581202 -0.07227,0.826172 v 0.0059 l -0.002,0.0059 c -0.02052,0.117973 -0.04839,0.265138 -0.07227,0.394532 h -0.636719 v -0.09375 c 0,-0.911664 -0.134514,-1.672676 -0.494141,-2.283203 -0.36018,-0.61147 -1.026085,-1.011719 -1.728515,-1.011719 -0.580237,0 -1.146878,0.185045 -1.529297,0.597656 -0.359251,0.388379 -0.525391,0.919657 -0.525391,1.464844 0,0.45374 0.0971,0.895371 0.294922,1.291015 l 0.002,0.002 0.002,0.002 c 0.169108,0.331169 0.378082,0.663687 0.626953,1 l 0.0059,0.0078 2.816406,3.576172 c 0.489215,0.631194 0.85053,1.219918 1.089844,1.759766 l 0.002,0.0039 0.002,0.0039 c 0.230402,0.502696 0.349609,1.067836 0.349609,1.71875 0,0.958646 -0.274368,1.610266 -0.83789,2.128906 -0.565964,0.515068 -1.309106,0.783204 -2.355469,0.783204 -0.880115,0 -1.510069,-0.153629 -1.910156,-0.388672 -0.439524,-0.268361 -0.710878,-0.575531 -0.876953,-0.955078 v -0.002 C 50.904726,32.057184 50.8125,31.610426 50.8125,31.130859 c 0,-0.315752 0.01804,-0.602813 0.05078,-0.861328 2.22e-4,-0.0018 -2.23e-4,-0.0041 0,-0.0059 0.01609,-0.106828 0.04854,-0.231976 0.07031,-0.345703 h 0.654297 v 0.03711 c 0,0.927161 0.130495,1.693927 0.480468,2.310547 v 0.002 l 0.002,0.002 c 0.361485,0.628295 1.057562,1.017578 1.78711,1.017578 0.57663,0 1.128056,-0.149596 1.521484,-0.535156 0.393429,-0.38556 0.550781,-0.937944 0.550781,-1.509766 0,-0.452451 -0.100475,-0.909112 -0.28125,-1.365234 -0.189897,-0.495895 -0.516589,-1.01092 -0.980468,-1.605469 l -0.002,-0.0039 -2.517579,-3.158203 -0.002,-0.002 -0.0039,-0.0059 c -0.409211,-0.531471 -0.720947,-1.055435 -0.943359,-1.566406 -3.26e-4,-7.49e-4 -0.0016,-0.0012 -0.002,-0.002 -0.202698,-0.480279 -0.308594,-1.022752 -0.308594,-1.646484 0,-0.918989 0.259264,-1.579428 0.789062,-2.125 0.522029,-0.536803 1.220573,-0.814453 2.253907,-0.814453 z m 9.373046,0 c 0.242477,0 0.525614,0.02277 0.845704,0.07422 h 0.002 v 0.002 c 0.274625,0.04336 0.55421,0.135906 0.84375,0.291016 l 0.0039,0.002 0.0039,0.0039 c 0.24439,0.126559 0.486415,0.330618 0.72461,0.646485 l 0.002,0.0039 0.002,0.002 c 0.220284,0.285901 0.425868,0.715232 0.583984,1.296875 l 0.002,0.0039 v 0.002 c 0.156357,0.555335 0.246094,1.310263 0.246094,2.246093 v 5.648438 c 0,1.130732 -0.136539,2.003174 -0.365234,2.595703 -0.245969,0.637284 -0.540916,1.071745 -0.847657,1.337891 -0.353731,0.300443 -0.694477,0.481442 -1.03125,0.570312 h -0.002 c -0.399291,0.106853 -0.741138,0.154297 -1.013672,0.154297 -0.320296,0 -0.689603,-0.04695 -1.107421,-0.148438 h -0.002 C 61.855878,33.595718 61.521733,33.422089 61.177734,33.125 60.881648,32.869289 60.595685,32.442006 60.361328,31.806641 v -0.002 c -0.219775,-0.602532 -0.351562,-1.489544 -0.351562,-2.634765 v -5.648438 c 0,-0.917004 0.08711,-1.659487 0.238281,-2.210937 1.32e-4,-4.82e-4 -1.32e-4,-0.0015 0,-0.002 0.164416,-0.581389 0.371131,-1.015293 0.58789,-1.302735 0.246428,-0.325075 0.494543,-0.539208 0.742188,-0.671875 l 0.002,-0.002 h 0.002 c 0.296152,-0.161064 0.576223,-0.257923 0.847656,-0.300781 h 0.0059 l 0.0059,-0.002 c 0.323155,-0.05669 0.611196,-0.08203 0.863281,-0.08203 z m 10.029297,0 c 0.242476,0 0.52366,0.02277 0.84375,0.07422 h 0.002 v 0.002 c 0.274625,0.04336 0.55421,0.135906 0.84375,0.291016 l 0.0039,0.002 0.0039,0.0039 c 0.24439,0.126559 0.486415,0.330618 0.724609,0.646485 l 0.002,0.0039 0.002,0.002 c 0.220284,0.285901 0.425867,0.715232 0.583984,1.296875 l 0.002,0.0039 v 0.002 c 0.156357,0.555335 0.246094,1.310263 0.246094,2.246093 v 5.648438 c 0,1.130732 -0.136539,2.003174 -0.365235,2.595703 -0.245969,0.637284 -0.540916,1.071745 -0.847656,1.337891 -0.353732,0.300444 -0.694478,0.481442 -1.03125,0.570312 h -0.002 c -0.399291,0.106853 -0.739185,0.154297 -1.011719,0.154297 -0.320297,0 -0.691555,-0.04695 -1.109375,-0.148438 h -0.002 C 71.883221,33.595718 71.549077,33.422089 71.205078,33.125 70.908991,32.869289 70.623029,32.442006 70.388672,31.806641 v -0.002 c -0.219775,-0.602532 -0.351563,-1.489544 -0.351563,-2.634765 v -5.648438 c 0,-0.917005 0.08711,-1.659487 0.238282,-2.210937 1.32e-4,-4.82e-4 -1.32e-4,-0.0015 0,-0.002 0.164416,-0.581389 0.37113,-1.015293 0.58789,-1.302735 0.246428,-0.325075 0.494542,-0.539208 0.742188,-0.671875 l 0.002,-0.002 h 0.002 c 0.29615,-0.161064 0.576222,-0.257923 0.847656,-0.300781 h 0.0059 l 0.0059,-0.002 c 0.323155,-0.05669 0.613149,-0.08203 0.865234,-0.08203 z m -33.761718,0.138671 h 1.074218 v 11.410157 c 0,1.035875 -0.165386,1.773063 -0.40039,2.193359 l -0.002,0.002 c -0.260394,0.46973 -0.552384,0.732515 -0.910157,0.88086 -0.428226,0.177557 -0.877363,0.265625 -1.367187,0.265625 -0.713474,0 -1.201352,-0.143994 -1.511719,-0.357422 h -0.002 c -0.351385,-0.248178 -0.581399,-0.549343 -0.730469,-0.962891 -0.16392,-0.454748 -0.25,-0.963446 -0.25,-1.537109 0,-0.307069 0.02079,-0.663134 0.0625,-1.06836 0.02272,-0.220703 0.06632,-0.439313 0.101563,-0.658203 h 0.685547 v 1.205078 c 0,0.862359 0.04176,1.470953 0.291015,1.990235 l 0.0039,0.0078 0.0039,0.0059 c 0.246311,0.482769 0.80372,0.824218 1.345703,0.824218 0.486537,0 0.983518,-0.285453 1.24414,-0.693359 0.324307,-0.496832 0.361329,-1.055319 0.361329,-1.826172 z m 40.74414,0 h 0.775391 l 3.892578,10.486329 h 1.248047 l -0.05469,-0.722657 c -0.02534,-0.335746 -0.05987,-0.707074 -0.103515,-1.113281 v -0.0098 c -0.03605,-0.397979 -0.06901,-0.878413 -0.09961,-1.441406 -0.03017,-0.555244 -0.04687,-1.241561 -0.04687,-2.054687 v -5.144532 h 0.802735 v 14.60355 H 85.933594 L 82.060547,23.484375 h -1.269531 l 0.06055,0.728516 c 0.03115,0.37377 0.0642,0.780505 0.101563,1.222656 0.03626,0.429041 0.0707,0.979866 0.101562,1.646484 0.03035,0.655666 0.04688,1.521461 0.04687,2.591797 v 4.015625 h -0.785156 z m -17.011719,0.41211 c -0.667591,0 -1.319072,0.335559 -1.664062,0.898437 l -0.002,0.002 v 0.002 c -0.368846,0.608098 -0.443359,1.377868 -0.44336,2.449218 v 7.189453 c 0,1.041819 0.07107,1.790882 0.451172,2.386719 l 0.002,0.0039 0.002,0.0039 c 0.353559,0.539644 0.998051,0.84375 1.654296,0.84375 0.648071,0 1.288792,-0.312285 1.632813,-0.851563 0.380104,-0.595837 0.449219,-1.3449 0.449219,-2.386719 v -7.189453 c 0,-1.069695 -0.07404,-1.837653 -0.441407,-2.445312 -0.335726,-0.561225 -0.981514,-0.90625 -1.640625,-0.90625 z m 10.029297,0 c -0.667591,0 -1.321026,0.335559 -1.666015,0.898437 l -0.002,0.002 v 0.002 c -0.368847,0.608098 -0.44336,1.377868 -0.44336,2.449218 v 7.189453 c 0,1.041819 0.07107,1.790882 0.451172,2.386719 l 0.002,0.0039 0.002,0.0039 c 0.35356,0.539644 1.000005,0.84375 1.65625,0.84375 0.648071,0 1.286839,-0.312285 1.63086,-0.851563 0.380103,-0.595837 0.451172,-1.3449 0.451172,-2.386719 v -7.189453 c 0,-1.069695 -0.07599,-1.837653 -0.44336,-2.445312 -0.335727,-0.561225 -0.979562,-0.90625 -1.638672,-0.90625 z m -10.029297,1.34375 c 0.29884,0 0.363147,0.04227 0.488282,0.251953 v 0.002 l 0.002,0.002 c 0.09175,0.151272 0.248047,0.781717 0.248047,1.751953 v 7.189453 c 0,0.937525 -0.159736,1.537876 -0.240235,1.664063 -0.11658,0.182748 -0.187566,0.230469 -0.498047,0.230469 -0.324741,0 -0.407321,-0.05721 -0.52539,-0.236328 -0.08076,-0.129014 -0.238281,-0.723914 -0.238281,-1.658204 v -7.189453 c 0,-0.969175 0.154298,-1.597846 0.246093,-1.75 0.128061,-0.208941 0.201724,-0.257812 0.517578,-0.257812 z m 10.029297,0 c 0.29884,0 0.361194,0.04227 0.486328,0.251953 l 0.002,0.002 v 0.002 c 0.09176,0.151272 0.248046,0.781717 0.248046,1.751953 v 7.189453 c 0,0.937525 -0.159735,1.537876 -0.240234,1.664063 -0.11658,0.182748 -0.185613,0.230469 -0.496094,0.230469 -0.324749,0 -0.40927,-0.0572 -0.527343,-0.236328 -0.08076,-0.129014 -0.238282,-0.723914 -0.238282,-1.658204 v -7.189453 c 0,-0.969176 0.156252,-1.597846 0.248047,-1.75 1.01e-4,-1.66e-4 -1e-4,-0.0018 0,-0.002 0.127015,-0.206563 0.203149,-0.255859 0.517578,-0.255859 z m -29.8125,5.90039 h 5.611328 v 0.550782 h -5.611328 z"
               id="path2" />
            <path
               style="font-size:19.1212px;line-height:0;font-family:'Fjalla One';-inkscape-font-specification:'Fjalla One, Normal';text-align:end;word-spacing:0px;baseline-shift:baseline;text-anchor:end;display:inline;overflow:visible;vector-effect:none;fill:url(#linearGradient2);stroke:none;paint-order:markers stroke fill;enable-background:accumulate;stop-color:#000000;stop-opacity:1"
               d="m 34.801188,30.9814 q 0,-0.504173 0.06535,-1.139056 0.06536,-0.634884 0.196067,-1.260431 h 1.932661 v 1.876641 q 0,1.232422 0.224076,1.699248 0.233413,0.457489 0.746922,0.457489 0.438817,0 0.681566,-0.382797 0.252087,-0.382798 0.252087,-1.465834 V 18.414439 h 2.418159 V 30.4959 q 0,1.652565 -0.485499,2.520862 -0.476163,0.85896 -1.241758,1.176402 -0.765595,0.317442 -1.624555,0.317442 -1.204411,0 -1.895314,-0.476163 -0.690903,-0.485499 -0.980335,-1.28844 -0.289432,-0.802941 -0.289432,-1.764603 z m 8.048083,-3.015697 v -1.895315 h 6.95571 v 1.895315 z m 7.291825,3.165081 q 0,-0.513509 0.05602,-0.952325 0.06536,-0.438817 0.186731,-0.933653 h 1.876641 v 0.709576 q 0,1.28844 0.392134,1.979343 0.392134,0.681566 1.204412,0.681566 1.400478,0 1.400478,-1.372469 0,-0.532181 -0.233413,-1.120382 -0.224076,-0.588201 -0.88697,-1.437825 l -2.520861,-3.165082 q -0.662893,-0.85896 -1.036354,-1.71792 -0.364125,-0.85896 -0.364125,-1.913987 0,-1.587209 0.980335,-2.595554 0.989672,-1.017681 2.735602,-1.017681 1.409815,0 2.212756,0.513509 0.802941,0.504172 1.129719,1.279104 0.336115,0.774931 0.336115,1.587209 0,0.513508 -0.08403,0.952325 -0.07469,0.42948 -0.177394,0.952325 h -1.867304 v -0.765595 q 0,-1.26043 -0.401471,-1.941996 -0.40147,-0.681567 -1.148392,-0.681567 -0.681566,0 -1.036354,0.382798 -0.345452,0.373461 -0.345452,1.008344 0,0.541519 0.224077,0.989672 0.224076,0.438816 0.569528,0.905643 l 2.810293,3.566552 q 0.774932,0.999008 1.176402,1.904651 0.410807,0.896306 0.410807,1.998016 0,1.652564 -1.055027,2.623563 -1.055027,0.961662 -2.810293,0.961662 -1.437825,0 -2.259439,-0.4855 -0.812278,-0.494835 -1.148392,-1.269767 -0.326779,-0.774931 -0.326779,-1.624555 z m 13.164498,3.370485 q -0.578864,0 -1.269767,-0.168057 -0.681566,-0.168058 -1.297777,-0.70024 -0.61621,-0.532181 -1.008344,-1.596545 -0.392134,-1.0737 -0.392134,-2.866313 v -5.648597 q 0,-1.437824 0.261423,-2.39015 0.270759,-0.961662 0.700239,-1.53119 0.438816,-0.578864 0.961662,-0.85896 0.532182,-0.289432 1.064363,-0.373461 0.532182,-0.09336 0.980335,-0.09336 0.429481,0 0.952326,0.08403 0.532182,0.08403 1.055027,0.364124 0.522845,0.270759 0.952325,0.840287 0.438817,0.569528 0.70024,1.53119 0.270759,0.961662 0.270759,2.427496 v 5.648597 q 0,1.77394 -0.410807,2.838303 -0.410807,1.064364 -1.036354,1.605882 -0.625547,0.532182 -1.297777,0.709576 -0.662893,0.177394 -1.185739,0.177394 z m 0,-1.895314 q 0.718913,0 1.064364,-0.541519 0.345452,-0.541518 0.345452,-2.026025 v -7.189123 q 0,-1.53119 -0.345452,-2.100718 -0.345451,-0.578865 -1.064364,-0.578865 -0.737585,0 -1.092373,0.578865 -0.345451,0.569528 -0.345451,2.100718 v 7.189123 q 0,1.484507 0.345451,2.026025 0.354788,0.541519 1.092373,0.541519 z m 10.027426,1.895314 q -0.578864,0 -1.269767,-0.168057 -0.681566,-0.168058 -1.297777,-0.70024 -0.61621,-0.532181 -1.008344,-1.596545 -0.392134,-1.0737 -0.392134,-2.866313 v -5.648597 q 0,-1.437824 0.261422,-2.39015 0.270759,-0.961662 0.70024,-1.53119 0.438816,-0.578864 0.961662,-0.85896 0.532181,-0.289432 1.064363,-0.373461 0.532182,-0.09336 0.980335,-0.09336 0.42948,0 0.952326,0.08403 0.532181,0.08403 1.055027,0.364124 0.522845,0.270759 0.952325,0.840287 0.438817,0.569528 0.70024,1.53119 0.270759,0.961662 0.270759,2.427496 v 5.648597 q 0,1.77394 -0.410807,2.838303 -0.410807,1.064364 -1.036354,1.605882 -0.625548,0.532182 -1.297777,0.709576 -0.662893,0.177394 -1.185739,0.177394 z m 0,-1.895314 q 0.718913,0 1.064364,-0.541519 0.345451,-0.541518 0.345451,-2.026025 v -7.189123 q 0,-1.53119 -0.345451,-2.100718 -0.345451,-0.578865 -1.064364,-0.578865 -0.737585,0 -1.092373,0.578865 -0.345451,0.569528 -0.345451,2.100718 v 7.189123 q 0,1.484507 0.345451,2.026025 0.354788,0.541519 1.092373,0.541519 z m 6.311491,-14.191516 h 1.913988 l 3.89333,10.484916 h 0.05602 q -0.03735,-0.494836 -0.102701,-1.10171 -0.05602,-0.61621 -0.102702,-1.475171 -0.04668,-0.85896 -0.04668,-2.091381 v -5.816654 h 2.147401 v 15.946782 h -1.932661 l -3.874657,-10.20482 h -0.07469 q 0.04668,0.560191 0.102701,1.223085 0.05602,0.662893 0.102702,1.671237 0.04668,1.008345 0.04668,2.623563 v 4.686935 h -2.128728 z"
               id="path3" />
          </g>
        </g>
      </g>
    </g>
  </g>
</svg>
